<?xml version="1.0" standalone="no"?>
<!DOCTYPE svg PUBLIC "-//W3C//DTD SVG 20010904//EN"
 "http://www.w3.org/TR/2001/REC-SVG-20010904/DTD/svg10.dtd">
<svg version="1.0" xmlns="http://www.w3.org/2000/svg"
 width="572.000000pt" height="572.000000pt" viewBox="0 0 572.000000 572.000000"
 preserveAspectRatio="xMidYMid meet">
<metadata>
Created by potrace 1.11, written by Peter Selinger 2001-2013
</metadata>
<g transform="translate(0.000000,572.000000) scale(0.100000,-0.100000)"
fill="#000000" stroke="none">
<path d="M2717 5314 c-151 -27 -325 -99 -426 -175 -29 -22 -57 -36 -63 -33 -6
4 -8 3 -5 -3 3 -5 -19 -34 -50 -64 -30 -30 -74 -80 -98 -111 -23 -32 -44 -55
-47 -52 -4 3 -6 -1 -5 -8 0 -7 -15 -47 -35 -89 -77 -158 -108 -349 -89 -543
20 -205 75 -359 179 -500 28 -38 49 -73 46 -78 -3 -4 3 -5 12 -1 13 5 16 3 11
-10 -3 -9 -3 -16 1 -16 21 4 32 -2 26 -13 -4 -7 -3 -10 1 -5 5 4 22 -6 39 -22
17 -16 56 -45 86 -65 l55 -36 -36 0 c-65 0 -281 -41 -404 -77 -66 -19 -181
-59 -255 -90 -74 -30 -143 -56 -152 -56 -9 -1 -15 -4 -13 -7 2 -3 -22 -19 -53
-35 -82 -42 -219 -130 -274 -177 -27 -22 -53 -36 -60 -32 -6 4 -8 3 -5 -3 3
-5 -12 -27 -34 -49 -66 -63 -152 -183 -186 -259 -44 -98 -57 -175 -50 -303 6
-131 32 -218 86 -294 22 -30 37 -59 33 -63 -4 -5 -2 -5 5 -1 6 3 15 2 18 -4
13 -21 129 -72 194 -86 186 -39 384 5 482 108 82 87 107 183 74 283 -9 25 -13
51 -9 57 4 6 3 8 -3 5 -6 -4 -15 4 -21 17 -6 13 -25 40 -42 59 -18 21 -28 41
-24 48 5 8 3 9 -5 5 -7 -5 -20 -1 -31 9 -27 24 -115 55 -158 55 -59 0 -163
-28 -212 -58 -25 -14 -49 -25 -53 -24 -5 1 -6 -2 -3 -7 4 -5 -2 -24 -13 -43
-26 -46 -33 -98 -20 -150 6 -23 11 -51 12 -60 1 -9 3 -15 6 -13 2 3 11 -4 18
-15 38 -54 154 -77 229 -45 19 8 36 13 37 12 8 -5 39 35 52 67 20 48 19 89 -4
136 l-19 39 29 -14 c53 -28 85 -126 64 -196 -15 -49 -80 -98 -152 -113 -18 -4
-66 -7 -107 -8 -141 0 -227 65 -257 196 -6 28 -9 96 -7 151 3 84 8 109 31 156
149 306 757 538 1485 566 l162 6 0 -377 0 -377 -112 3 c-87 2 -112 6 -110 16
1 8 -1 11 -6 8 -5 -3 -34 22 -65 54 -31 33 -59 60 -62 60 -3 0 -5 -148 -5
-330 0 -181 3 -330 8 -330 4 0 15 9 25 20 10 12 23 18 30 14 6 -4 9 -3 4 1 -4
5 16 33 45 62 l52 53 98 0 98 0 0 -455 c0 -250 -2 -455 -6 -455 -3 0 -40 26
-82 57 -42 32 -97 71 -122 86 -25 16 -55 39 -68 50 l-23 22 9 -26 c6 -14 67
-139 136 -278 70 -138 123 -257 120 -263 -4 -6 -3 -8 3 -5 13 8 86 -140 77
-155 -4 -6 -3 -8 3 -5 13 8 86 -131 79 -150 -3 -8 -2 -11 3 -8 5 3 25 -26 43
-64 18 -39 35 -70 38 -70 3 -1 33 56 67 127 208 434 317 651 326 645 6 -3 7
-1 4 4 -10 16 13 74 26 66 5 -3 7 -2 4 4 -3 5 9 40 27 79 19 38 32 70 31 72
-2 2 -66 -40 -144 -93 l-141 -95 0 455 0 455 76 0 c69 0 78 -2 114 -32 33 -26
38 -34 28 -47 -10 -13 -10 -14 2 -4 11 10 23 4 60 -27 26 -22 51 -40 54 -40 3
0 6 149 6 330 0 182 -4 330 -8 330 -5 0 -39 -31 -76 -70 l-68 -70 -94 0 -94 0
0 375 c0 293 3 375 13 375 154 4 595 -3 675 -10 133 -13 293 -39 308 -51 6 -5
14 -6 17 -3 8 9 157 -37 157 -48 0 -5 4 -6 10 -3 36 22 458 -222 432 -250 -4
-5 -2 -5 4 -2 16 9 178 -158 169 -173 -5 -8 -4 -11 2 -7 13 8 47 -28 39 -41
-3 -5 0 -9 7 -10 7 0 21 -2 32 -4 32 -5 29 27 -9 92 -53 90 -91 186 -123 307
-26 102 -28 120 -28 318 1 189 3 222 28 336 25 120 92 404 103 442 9 28 -8 20
-73 -38 -60 -54 -82 -68 -67 -42 5 8 3 8 -9 -2 -9 -7 -15 -17 -12 -21 5 -9
-112 -96 -220 -165 -172 -110 -412 -204 -618 -244 -124 -24 -334 -51 -392 -51
-38 1 -39 1 -20 16 76 57 130 109 176 171 29 39 57 69 63 66 5 -3 6 -1 3 4 -4
6 9 45 27 86 41 88 52 125 72 232 48 266 18 508 -91 711 -24 45 -42 85 -39 88
2 3 1 4 -2 2 -4 -3 -26 21 -50 53 -85 113 -214 218 -351 286 -35 17 -60 35
-56 40 5 4 3 5 -4 1 -7 -3 -47 5 -90 18 -149 47 -330 58 -486 30z m378 -458
c250 -96 400 -312 382 -552 -6 -87 -35 -196 -50 -187 -6 3 -7 1 -3 -5 12 -20
-63 -149 -79 -134 -3 4 -5 3 -4 -3 9 -31 -87 -118 -186 -168 -164 -82 -364
-80 -520 7 -33 19 -59 39 -57 46 1 6 -2 9 -7 6 -5 -4 -33 16 -63 43 -164 151
-216 405 -127 628 12 31 26 50 32 46 6 -3 7 -1 3 6 -20 32 124 188 220 238 96
51 154 63 279 59 90 -2 123 -8 180 -30z"/>
</g>
</svg>
